<svg width="367" height="70" viewBox="0 0 367 70" fill="none" xmlns="http://www.w3.org/2000/svg">
<g filter="url(#filter0_d)">
<path d="M6.2 58V25.12L5.6 19.12L6.2 15.52H19.46V58H6.2ZM26.6352 58V39.94L25.4352 33.34L27.2952 29.68H38.6352V32.26L39.1752 32.62C39.6152 32.22 40.2152 31.76 40.9752 31.24C41.7752 30.68 42.7352 30.18 43.8552 29.74C44.9752 29.3 46.2352 29.08 47.6352 29.08C50.9152 29.08 53.3352 30.1 54.8952 32.14C56.4552 34.18 57.2352 37.04 57.2352 40.72V48.4L58.4352 54.4L57.2352 58H43.9752V42.82C43.9752 41.62 43.6952 40.74 43.1352 40.18C42.6152 39.58 41.7152 39.28 40.4352 39.28L39.8352 39.88V58H26.6352ZM69.2506 58L61.6906 37.48L60.4906 29.68H74.2906L76.3906 47.2H77.5906L79.7506 29.68H93.4906L92.2906 37.48L84.2506 58H69.2506ZM110.098 58.6C105.218 58.6 101.338 57.44 98.4575 55.12C95.5775 52.8 94.1375 49.04 94.1375 43.84C94.1375 38.6 95.5775 34.84 98.4575 32.56C101.338 30.24 105.218 29.08 110.098 29.08C115.138 29.08 119.038 30.24 121.798 32.56C124.558 34.84 125.938 38.6 125.938 43.84C125.938 49.04 124.558 52.8 121.798 55.12C119.038 57.44 115.138 58.6 110.098 58.6ZM110.098 49C110.858 49 111.478 48.7 111.958 48.1C112.438 47.46 112.678 46.04 112.678 43.84C112.678 41.6 112.438 40.18 111.958 39.58C111.518 38.98 110.898 38.68 110.098 38.68C109.338 38.68 108.698 38.98 108.178 39.58C107.658 40.18 107.398 41.6 107.398 43.84C107.398 46.04 107.658 47.46 108.178 48.1C108.698 48.7 109.338 49 110.098 49ZM136.936 27.94L128.056 20.26L136.936 12.64L145.816 20.26L136.936 27.94ZM130.276 58V38.14L129.016 33.34L130.216 29.68H143.476V58H130.276ZM162.889 58.6C159.929 58.6 157.229 58.14 154.789 57.22C152.389 56.3 150.489 54.76 149.089 52.6C147.689 50.44 146.989 47.52 146.989 43.84C146.989 41 147.469 38.64 148.429 36.76C149.389 34.88 150.649 33.38 152.209 32.26C153.769 31.1 155.469 30.28 157.309 29.8C159.189 29.32 161.049 29.08 162.889 29.08C165.089 29.08 166.949 29.18 168.469 29.38C169.989 29.54 171.069 29.66 171.709 29.74L176.389 35.02L170.989 42.76L164.089 39.28C163.209 39.28 162.429 39.6 161.749 40.24C161.069 40.88 160.729 42.08 160.729 43.84C160.729 45.68 161.129 46.9 161.929 47.5C162.769 48.1 163.889 48.4 165.289 48.4C167.769 48.4 169.909 48.08 171.709 47.44C173.509 46.76 174.849 46.22 175.729 45.82V56.26C174.209 57.02 172.289 57.6 169.969 58C167.689 58.4 165.329 58.6 162.889 58.6ZM196.477 58.6C193.397 58.6 190.597 58.16 188.077 57.28C185.597 56.36 183.617 54.84 182.137 52.72C180.697 50.56 179.977 47.6 179.977 43.84C179.977 41.2 180.417 38.94 181.297 37.06C182.217 35.18 183.437 33.66 184.957 32.5C186.477 31.3 188.177 30.44 190.057 29.92C191.937 29.36 193.877 29.08 195.877 29.08C198.397 29.08 200.497 29.24 202.177 29.56C203.897 29.88 205.277 30.24 206.317 30.64C207.357 31.04 208.157 31.4 208.717 31.72L211.717 41.26L210.517 44.98H193.117C193.277 46.1 193.857 47.06 194.857 47.86C195.857 48.62 197.597 49 200.077 49C202.437 49 204.397 48.74 205.957 48.22C207.517 47.7 208.637 47.3 209.317 47.02V56.26C208.517 56.7 207.417 57.1 206.017 57.46C204.617 57.82 203.077 58.1 201.397 58.3C199.757 58.5 198.117 58.6 196.477 58.6ZM192.937 41.08L199.057 39.94L198.517 38.02C197.957 37.7 197.277 37.54 196.477 37.54C195.157 37.54 194.217 37.9 193.657 38.62C193.137 39.34 192.897 40.16 192.937 41.08Z" fill="#485FC7"/>
<path d="M217.386 58V25.12L216.186 19.12L217.386 15.52H240.186C244.706 15.52 248.326 16.4 251.046 18.16C253.766 19.92 255.126 22.6 255.126 26.2C255.126 28.16 254.766 29.78 254.046 31.06C253.366 32.3 252.486 33.36 251.406 34.24C252.766 34.56 254.046 35.16 255.246 36.04C256.446 36.88 257.426 38.02 258.186 39.46C258.946 40.86 259.326 42.6 259.326 44.68C259.326 48.88 258.086 52.16 255.606 54.52C253.166 56.84 249.226 58 243.786 58H217.386ZM230.586 32.02H237.666C239.026 32.02 240.006 31.82 240.606 31.42C241.206 30.98 241.506 30.32 241.506 29.44C241.506 28.52 241.066 27.88 240.186 27.52C239.306 27.12 238.266 26.92 237.066 26.92H230.586V32.02ZM230.586 46.6H240.786C242.386 46.6 243.506 46.36 244.146 45.88C244.786 45.36 245.106 44.68 245.106 43.84C245.106 41.92 243.866 40.96 241.386 40.96H230.586V46.6ZM272.546 58.6C269.866 58.6 267.686 57.98 266.006 56.74C264.366 55.46 263.546 53.24 263.546 50.08C263.546 47.16 264.506 44.96 266.426 43.48C268.386 41.96 271.026 41.2 274.346 41.2C276.146 41.2 277.586 41.38 278.666 41.74C279.746 42.06 280.566 42.38 281.126 42.7L281.546 42.4C281.546 41.16 281.326 40.24 280.886 39.64C280.446 39 279.386 38.68 277.706 38.68C276.226 38.68 274.706 38.84 273.146 39.16C271.626 39.44 270.186 39.82 268.826 40.3C267.466 40.74 266.306 41.22 265.346 41.74V30.94C265.986 30.74 267.006 30.5 268.406 30.22C269.806 29.94 271.486 29.7 273.446 29.5C275.406 29.26 277.506 29.14 279.746 29.14C283.506 29.14 286.486 29.6 288.686 30.52C290.886 31.4 292.446 32.7 293.366 34.42C294.326 36.1 294.806 38.12 294.806 40.48V48.46L296.006 54.52L294.806 58.06H282.146V55.12L281.546 54.82C280.906 55.74 279.806 56.6 278.246 57.4C276.726 58.2 274.826 58.6 272.546 58.6ZM279.326 50.74C279.926 50.74 280.426 50.64 280.826 50.44C281.226 50.24 281.466 50.12 281.546 50.08V48.76C281.546 48.16 281.366 47.64 281.006 47.2C280.646 46.76 280.106 46.54 279.386 46.54C278.746 46.54 278.146 46.72 277.586 47.08C277.026 47.4 276.746 47.98 276.746 48.82C276.746 50.1 277.606 50.74 279.326 50.74ZM313.33 58.6C309.93 58.6 307.15 58.32 304.99 57.76C302.83 57.16 301.09 56.52 299.77 55.84V45.7C301.45 46.7 303.39 47.5 305.59 48.1C307.79 48.7 309.77 49 311.53 49C312.17 49 312.61 48.92 312.85 48.76C313.09 48.6 313.21 48.36 313.21 48.04C313.21 47.72 312.81 47.38 312.01 47.02C311.25 46.62 309.93 46.14 308.05 45.58C306.57 45.1 305.15 44.58 303.79 44.02C302.43 43.46 301.33 42.72 300.49 41.8C299.65 40.88 299.23 39.66 299.23 38.14C299.23 35.82 299.81 34 300.97 32.68C302.17 31.36 303.81 30.44 305.89 29.92C308.01 29.36 310.41 29.08 313.09 29.08C314.61 29.08 316.13 29.16 317.65 29.32C319.21 29.48 320.27 29.6 320.83 29.68L326.41 32.68L323.71 40.9L314.35 38.62C313.07 38.62 312.43 38.92 312.43 39.52C312.43 40.2 313.35 40.78 315.19 41.26C317.07 41.78 318.91 42.34 320.71 42.94C322.51 43.54 323.99 44.36 325.15 45.4C326.31 46.4 326.89 47.8 326.89 49.6C326.89 52.64 325.69 54.9 323.29 56.38C320.89 57.86 317.57 58.6 313.33 58.6ZM346.419 58.6C343.339 58.6 340.539 58.16 338.019 57.28C335.539 56.36 333.559 54.84 332.079 52.72C330.639 50.56 329.919 47.6 329.919 43.84C329.919 41.2 330.359 38.94 331.239 37.06C332.159 35.18 333.379 33.66 334.899 32.5C336.419 31.3 338.119 30.44 339.999 29.92C341.879 29.36 343.819 29.08 345.819 29.08C348.339 29.08 350.439 29.24 352.119 29.56C353.839 29.88 355.219 30.24 356.259 30.64C357.299 31.04 358.099 31.4 358.659 31.72L361.659 41.26L360.459 44.98H343.059C343.219 46.1 343.799 47.06 344.799 47.86C345.799 48.62 347.539 49 350.019 49C352.379 49 354.339 48.74 355.899 48.22C357.459 47.7 358.579 47.3 359.259 47.02V56.26C358.459 56.7 357.359 57.1 355.959 57.46C354.559 57.82 353.019 58.1 351.339 58.3C349.699 58.5 348.059 58.6 346.419 58.6ZM342.879 41.08L348.999 39.94L348.459 38.02C347.899 37.7 347.219 37.54 346.419 37.54C345.099 37.54 344.159 37.9 343.599 38.62C343.079 39.34 342.839 40.16 342.879 41.08Z" fill="#191919"/>
</g>
<rect x="213" y="63" width="150" height="4" fill="#485FC7"/>
<rect x="150" y="63" width="63" height="4" fill="#191919"/>
<defs>
<filter id="filter0_d" x="0.600098" y="9.64" width="366.059" height="55.96" filterUnits="userSpaceOnUse" color-interpolation-filters="sRGB">
<feFlood flood-opacity="0" result="BackgroundImageFix"/>
<feColorMatrix in="SourceAlpha" type="matrix" values="0 0 0 0 0 0 0 0 0 0 0 0 0 0 0 0 0 0 127 0" result="hardAlpha"/>
<feOffset dy="2"/>
<feGaussianBlur stdDeviation="2.5"/>
<feComposite in2="hardAlpha" operator="out"/>
<feColorMatrix type="matrix" values="0 0 0 0 0 0 0 0 0 0 0 0 0 0 0 0 0 0 0.25 0"/>
<feBlend mode="normal" in2="BackgroundImageFix" result="effect1_dropShadow"/>
<feBlend mode="normal" in="SourceGraphic" in2="effect1_dropShadow" result="shape"/>
</filter>
</defs>
</svg>
